<svg width="286" height="62" viewBox="0 0 286 62" fill="none" xmlns="http://www.w3.org/2000/svg"><g clip-path="url(#clip0_3009_2382)"><rect width="286" height="62" fill="none"/><path d="M20.5847 1.82349H13.6624L0 60.1764H8.19745L10.5656 47.4117H23.4994L25.8675 60.1764H34.065L20.5847 1.82349ZM12.0229 40.3L17.1236 13.8588L22.2242 40.3H12.2051H12.0229Z" fill="#01E4DB"/><path d="M68.3121 1.82349V60.1764H61.3898L46.8166 20.2411V60.1764H39.3478V1.82349H46.0879L61.0255 43.2176V1.82349H68.3121Z" fill="#01E4DB"/><path d="M104.017 2V9.29412H93.6332V60.3529H85.9822V9.29412H75.5988V2H104.017Z" fill="#01E4DB"/><path d="M186.173 7.47643C185.262 5.6529 183.805 4.19407 181.983 3.28231C180.162 2.37055 177.976 1.82349 175.243 1.82349H159.941V60.1764H175.243C177.794 60.1764 179.98 59.6294 181.983 58.7176C183.805 57.8058 185.262 56.347 186.173 54.5235C187.084 52.7 187.631 50.5117 187.631 47.9588V14.0411C187.631 11.4882 187.084 9.29996 186.173 7.47643ZM179.98 48.1411C179.98 49.6 179.615 50.8764 178.887 51.6058C178.158 52.5176 177.065 52.8823 175.608 52.8823H167.775V9.1176H175.608C177.065 9.1176 178.158 9.48231 178.887 10.3941C179.615 11.3058 179.98 12.4 179.98 13.8588V48.1411Z" fill="#01E4DB"/><path d="M210.948 1.82349H203.843L190.181 60.1764H198.378L200.747 47.4117H213.498L215.866 60.1764H224.064L210.948 1.82349ZM202.386 40.3L207.487 13.8588L212.587 40.3H202.568H202.386Z" fill="#01E4DB"/><path d="M252.664 1.82349V9.1176H242.28V60.1764H234.629V9.1176H224.064V1.82349H252.664Z" fill="#01E4DB"/><path d="M272.338 1.82349H265.415L251.753 60.1764H259.95L262.319 47.4117H275.252L277.62 60.1764H285.818L272.155 1.82349H272.338ZM263.776 40.3L268.877 13.8588L273.977 40.3H263.958H263.776Z" fill="#01E4DB"/><path d="M143 1.99988H109.846V17.9999H143V1.99988Z" fill="#D9D9D9"/><path d="M151.197 22.9999H109.846V38.9999H151.197V22.9999Z" fill="#D9D9D9"/><path d="M147.008 44H109.846V60H147.008V44Z" fill="#D9D9D9"/></g><defs><clipPath id="clip0_3009_2382"><rect width="286" height="62" fill="white"/></clipPath></defs></svg>