<svg width="16" height="16" viewBox="0 0 16 16" fill="none" xmlns="http://www.w3.org/2000/svg"><path fill-rule="evenodd" clip-rule="evenodd" d="M3.3563 16V5.4186H0.1004V16H3.3563ZM3.3563 1.6679C3.3369 0.721 2.7086 0 1.688 0C0.6671 0 0 0.721 0 1.6679C0 2.5943 0.6477 3.3361 1.6489 3.3361H1.6683C2.7086 3.3361 3.3563 2.5943 3.3563 1.6679ZM8.6681 16V9.9712C8.6681 9.6486 8.6913 9.3259 8.7858 9.0959C9.044 8.4509 9.6317 7.7832 10.6186 7.7832C11.9114 7.7832 12.7222 8.5202 12.7222 9.9712V16H16V9.8099C16 6.4939 14.2378 4.9509 11.8872 4.9509C9.9599 4.9509 9.114 6.0333 8.6442 6.7699L8.6678 5.3547H5.3956C5.4427 6.3677 5.3956 16 5.3956 16H8.6681Z" fill="black"/></svg>