<svg width="289" height="20" viewBox="0 0 289 20" fill="none" xmlns="http://www.w3.org/2000/svg"><path d="M284.564 7.55413C285.15 7.55413 285.695 7.6137 286.199 7.73284C286.713 7.85198 287.153 7.99403 287.519 8.15899C287.895 8.32395 288.161 8.47058 288.316 8.59888L287.368 10.111C287.185 9.94606 286.855 9.76277 286.378 9.56115C285.902 9.35037 285.37 9.24498 284.784 9.24498C284.142 9.24498 283.597 9.37328 283.148 9.62989C282.699 9.87733 282.474 10.2393 282.474 10.7159C282.474 11.1924 282.703 11.5728 283.161 11.8569C283.629 12.1318 284.252 12.3609 285.031 12.5442C285.654 12.6908 286.236 12.8879 286.777 13.1353C287.327 13.3827 287.771 13.7264 288.11 14.1663C288.449 14.597 288.619 15.1744 288.619 15.8984C288.619 16.5582 288.481 17.1218 288.207 17.5892C287.932 18.0475 287.56 18.4186 287.093 18.7027C286.626 18.9776 286.103 19.1793 285.526 19.3076C284.949 19.4359 284.362 19.5 283.766 19.5C283.07 19.5 282.442 19.4267 281.883 19.2801C281.324 19.1426 280.852 18.9776 280.467 18.7852C280.091 18.5836 279.816 18.4094 279.642 18.2628L280.591 16.5582C280.829 16.7873 281.219 17.0302 281.759 17.2868C282.309 17.5434 282.932 17.6717 283.629 17.6717C284.399 17.6717 285.022 17.5113 285.498 17.1906C285.975 16.8607 286.213 16.4345 286.213 15.9121C286.213 15.5181 286.099 15.2019 285.87 14.9636C285.64 14.7253 285.333 14.5329 284.949 14.3862C284.564 14.2396 284.142 14.1113 283.684 14.0013C283.244 13.9005 282.813 13.7676 282.392 13.6027C281.979 13.4377 281.599 13.2269 281.251 12.9703C280.912 12.7046 280.641 12.3838 280.44 12.0081C280.238 11.6232 280.137 11.1741 280.137 10.6609C280.137 10.0102 280.343 9.45576 280.756 8.99754C281.168 8.53015 281.709 8.17274 282.378 7.9253C283.047 7.67785 283.775 7.55413 284.564 7.55413Z" fill="white"/><path d="M272.569 7.55413C273.311 7.55413 274.031 7.70993 274.727 8.02152C275.433 8.33311 276.01 8.828 276.46 9.50617C276.918 10.1752 277.147 11.0504 277.147 12.1318V19.1701H274.727V12.5992C274.727 11.4811 274.466 10.6701 273.944 10.166C273.421 9.6528 272.748 9.39619 271.923 9.39619C271.382 9.39619 270.86 9.55199 270.356 9.86358C269.861 10.166 269.453 10.5876 269.133 11.1283C268.812 11.6598 268.651 12.2647 268.651 12.9428V19.1701H266.259V7.88406H268.651V9.89107C268.734 9.57948 268.958 9.2404 269.325 8.87382C269.692 8.50724 270.159 8.19565 270.727 7.93904C271.295 7.68244 271.909 7.55413 272.569 7.55413Z" fill="white"/><path d="M257.628 19.5C256.464 19.5 255.428 19.2388 254.521 18.7165C253.623 18.1941 252.917 17.4884 252.404 16.5995C251.891 15.7013 251.634 14.6887 251.634 13.5614C251.634 12.4342 251.891 11.417 252.404 10.5097C252.917 9.60239 253.623 8.88298 254.521 8.35144C255.428 7.8199 256.464 7.55413 257.628 7.55413C258.783 7.55413 259.804 7.8199 260.693 8.35144C261.591 8.88298 262.293 9.60239 262.797 10.5097C263.301 11.417 263.553 12.4342 263.553 13.5614C263.553 14.6887 263.301 15.7013 262.797 16.5995C262.293 17.4884 261.591 18.1941 260.693 18.7165C259.804 19.2388 258.783 19.5 257.628 19.5ZM257.628 17.4518C258.361 17.4518 258.998 17.2822 259.539 16.9431C260.088 16.604 260.515 16.1412 260.817 15.5547C261.119 14.959 261.271 14.29 261.271 13.5477C261.271 12.8054 261.119 12.1364 260.817 11.5407C260.515 10.945 260.088 10.473 259.539 10.1248C258.998 9.77652 258.361 9.60239 257.628 9.60239C256.885 9.60239 256.239 9.77652 255.69 10.1248C255.14 10.473 254.709 10.945 254.397 11.5407C254.095 12.1364 253.944 12.8054 253.944 13.5477C253.944 14.29 254.095 14.959 254.397 15.5547C254.709 16.1412 255.14 16.604 255.69 16.9431C256.239 17.2822 256.885 17.4518 257.628 17.4518Z" fill="white"/><path d="M246.301 19.1701V7.88406H248.693V19.1701H246.301ZM247.524 4.02123C247.093 4.02123 246.722 3.87002 246.411 3.56759C246.108 3.256 245.957 2.88484 245.957 2.45411C245.957 2.02338 246.108 1.65222 246.411 1.34062C246.722 1.02903 247.093 0.873236 247.524 0.873236C247.808 0.873236 248.069 0.946552 248.308 1.09318C248.555 1.23982 248.752 1.43227 248.899 1.67055C249.046 1.89966 249.119 2.16084 249.119 2.45411C249.119 2.88484 248.963 3.256 248.651 3.56759C248.34 3.87002 247.964 4.02123 247.524 4.02123Z" fill="white"/><path d="M235.92 7.88406H238.134V3.25142H240.512V7.88406H243.412V9.93231H240.512V15.5135C240.512 16.1733 240.626 16.659 240.856 16.9706C241.094 17.2822 241.41 17.438 241.804 17.438C242.152 17.438 242.423 17.3739 242.615 17.2456C242.808 17.1173 242.922 17.0302 242.959 16.9844L243.907 18.744C243.852 18.7898 243.706 18.8768 243.467 19.0051C243.229 19.1334 242.922 19.248 242.546 19.3488C242.171 19.4496 241.731 19.5 241.227 19.5C240.347 19.5 239.609 19.2343 239.013 18.7027C238.427 18.162 238.134 17.3097 238.134 16.1458V9.93231H235.92V7.88406Z" fill="white"/><path d="M225.107 13.5752C225.107 14.7574 225.359 15.7013 225.863 16.407C226.376 17.1035 227.16 17.4518 228.214 17.4518C229.277 17.4518 230.06 17.1035 230.564 16.407C231.068 15.7013 231.32 14.7574 231.32 13.5752V7.88406H233.685V13.9051C233.685 15.0048 233.47 15.9763 233.039 16.8194C232.617 17.6625 231.999 18.3224 231.183 18.7989C230.377 19.2663 229.387 19.5 228.214 19.5C227.05 19.5 226.06 19.2663 225.244 18.7989C224.438 18.3224 223.819 17.6625 223.389 16.8194C222.967 15.9763 222.756 15.0048 222.756 13.9051V7.88406H225.107V13.5752Z" fill="white"/><path d="M219.366 19.1701H216.96V0.254639H219.366V19.1701Z" fill="white"/><path d="M208.246 19.5C207.082 19.5 206.047 19.2388 205.139 18.7165C204.241 18.1941 203.535 17.4884 203.022 16.5995C202.509 15.7013 202.252 14.6887 202.252 13.5614C202.252 12.4342 202.509 11.417 203.022 10.5097C203.535 9.60239 204.241 8.88298 205.139 8.35144C206.047 7.8199 207.082 7.55413 208.246 7.55413C209.401 7.55413 210.423 7.8199 211.312 8.35144C212.21 8.88298 212.911 9.60239 213.415 10.5097C213.919 11.417 214.171 12.4342 214.171 13.5614C214.171 14.6887 213.919 15.7013 213.415 16.5995C212.911 17.4884 212.21 18.1941 211.312 18.7165C210.423 19.2388 209.401 19.5 208.246 19.5ZM208.246 17.4518C208.979 17.4518 209.616 17.2822 210.157 16.9431C210.707 16.604 211.133 16.1412 211.435 15.5547C211.738 14.959 211.889 14.29 211.889 13.5477C211.889 12.8054 211.738 12.1364 211.435 11.5407C211.133 10.945 210.707 10.473 210.157 10.1248C209.616 9.77652 208.979 9.60239 208.246 9.60239C207.504 9.60239 206.858 9.77652 206.308 10.1248C205.758 10.473 205.327 10.945 205.016 11.5407C204.713 12.1364 204.562 12.8054 204.562 13.5477C204.562 14.29 204.713 14.959 205.016 15.5547C205.327 16.1412 205.758 16.604 206.308 16.9431C206.858 17.2822 207.504 17.4518 208.246 17.4518Z" fill="white"/><path d="M196.139 7.55413C196.726 7.55413 197.271 7.6137 197.775 7.73284C198.289 7.85198 198.728 7.99403 199.095 8.15899C199.471 8.32395 199.736 8.47058 199.892 8.59888L198.944 10.111C198.76 9.94606 198.431 9.76277 197.954 9.56115C197.477 9.35037 196.946 9.24498 196.359 9.24498C195.718 9.24498 195.173 9.37328 194.724 9.62989C194.274 9.87733 194.05 10.2393 194.05 10.7159C194.05 11.1924 194.279 11.5728 194.737 11.8569C195.205 12.1318 195.828 12.3609 196.607 12.5442C197.23 12.6908 197.812 12.8879 198.353 13.1353C198.903 13.3827 199.347 13.7264 199.686 14.1663C200.025 14.597 200.195 15.1744 200.195 15.8984C200.195 16.5582 200.057 17.1218 199.782 17.5892C199.507 18.0475 199.136 18.4186 198.669 18.7027C198.201 18.9776 197.679 19.1793 197.102 19.3076C196.524 19.4359 195.938 19.5 195.342 19.5C194.646 19.5 194.018 19.4267 193.459 19.2801C192.9 19.1426 192.428 18.9776 192.043 18.7852C191.667 18.5836 191.392 18.4094 191.218 18.2628L192.167 16.5582C192.405 16.7873 192.794 17.0302 193.335 17.2868C193.885 17.5434 194.508 17.6717 195.205 17.6717C195.974 17.6717 196.598 17.5113 197.074 17.1906C197.551 16.8607 197.789 16.4345 197.789 15.9121C197.789 15.5181 197.674 15.2019 197.445 14.9636C197.216 14.7253 196.909 14.5329 196.524 14.3862C196.139 14.2396 195.718 14.1113 195.26 14.0013C194.82 13.9005 194.389 13.7676 193.967 13.6027C193.555 13.4377 193.175 13.2269 192.826 12.9703C192.487 12.7046 192.217 12.3838 192.015 12.0081C191.814 11.6232 191.713 11.1741 191.713 10.6609C191.713 10.0102 191.919 9.45576 192.332 8.99754C192.744 8.53015 193.285 8.17274 193.954 7.9253C194.623 7.67785 195.351 7.55413 196.139 7.55413Z" fill="white"/><path d="M179.416 19.1701V16.9706C179.343 17.1997 179.127 17.5159 178.77 17.9191C178.422 18.3224 177.94 18.689 177.326 19.0189C176.722 19.3396 176.007 19.5 175.182 19.5C174.137 19.5 173.189 19.2526 172.336 18.7577C171.493 18.2628 170.82 17.5709 170.316 16.6819C169.821 15.7838 169.573 14.7345 169.573 13.5339C169.573 12.3334 169.821 11.2887 170.316 10.3997C170.82 9.50158 171.493 8.80508 172.336 8.3102C173.189 7.80616 174.137 7.55413 175.182 7.55413C175.998 7.55413 176.703 7.70077 177.299 7.99403C177.904 8.28729 178.385 8.62638 178.742 9.01128C179.109 9.39619 179.324 9.72611 179.388 10.001V7.88406H181.753V19.1701H179.416ZM171.938 13.5339C171.938 14.3496 172.116 15.0553 172.474 15.6509C172.831 16.2466 173.294 16.7094 173.862 17.0394C174.44 17.3601 175.054 17.5205 175.704 17.5205C176.401 17.5205 177.024 17.3555 177.574 17.0256C178.124 16.6957 178.559 16.2329 178.88 15.6372C179.201 15.0323 179.361 14.3313 179.361 13.5339C179.361 12.7366 179.201 12.0401 178.88 11.4445C178.559 10.8396 178.124 10.3722 177.574 10.0423C177.024 9.7032 176.401 9.53366 175.704 9.53366C175.054 9.53366 174.44 9.69862 173.862 10.0285C173.294 10.3585 172.831 10.8213 172.474 11.417C172.116 12.0126 171.938 12.7183 171.938 13.5339Z" fill="white"/><path d="M160.224 7.88406H162.437V3.25142H164.815V7.88406H167.716V9.93231H164.815V15.5135C164.815 16.1733 164.93 16.659 165.159 16.9706C165.397 17.2822 165.714 17.438 166.108 17.438C166.456 17.438 166.726 17.3739 166.919 17.2456C167.111 17.1173 167.226 17.0302 167.262 16.9844L168.211 18.744C168.156 18.7898 168.009 18.8768 167.771 19.0051C167.533 19.1334 167.226 19.248 166.85 19.3488C166.474 19.4496 166.034 19.5 165.53 19.5C164.65 19.5 163.913 19.2343 163.317 18.7027C162.731 18.162 162.437 17.3097 162.437 16.1458V9.93231H160.224V7.88406Z" fill="white"/><path d="M155.598 19.1701V16.9706C155.525 17.1997 155.31 17.5159 154.952 17.9191C154.604 18.3224 154.123 18.689 153.509 19.0189C152.904 19.3396 152.189 19.5 151.364 19.5C150.32 19.5 149.371 19.2526 148.519 18.7577C147.676 18.2628 147.002 17.5709 146.498 16.6819C146.003 15.7838 145.756 14.7345 145.756 13.5339C145.756 12.3334 146.003 11.2887 146.498 10.3997C147.002 9.50158 147.676 8.80508 148.519 8.3102C149.371 7.80616 150.32 7.55413 151.364 7.55413C152.18 7.55413 152.886 7.70077 153.481 7.99403C154.086 8.28729 154.567 8.62638 154.925 9.01128C155.291 9.39619 155.507 9.72611 155.571 10.001V7.88406H157.935V19.1701H155.598ZM148.12 13.5339C148.12 14.3496 148.299 15.0553 148.656 15.6509C149.014 16.2466 149.476 16.7094 150.045 17.0394C150.622 17.3601 151.236 17.5205 151.887 17.5205C152.583 17.5205 153.206 17.3555 153.756 17.0256C154.306 16.6957 154.741 16.2329 155.062 15.6372C155.383 15.0323 155.543 14.3313 155.543 13.5339C155.543 12.7366 155.383 12.0401 155.062 11.4445C154.741 10.8396 154.306 10.3722 153.756 10.0423C153.206 9.7032 152.583 9.53366 151.887 9.53366C151.236 9.53366 150.622 9.69862 150.045 10.0285C149.476 10.3585 149.014 10.8213 148.656 11.417C148.299 12.0126 148.12 12.7183 148.12 13.5339Z" fill="white"/><path d="M137.029 19.5C135.993 19.5 135.063 19.2526 134.238 18.7577C133.423 18.2628 132.777 17.5709 132.3 16.6819C131.833 15.7838 131.599 14.7345 131.599 13.534C131.599 12.3334 131.833 11.2887 132.3 10.3997C132.777 9.50159 133.423 8.80509 134.238 8.31021C135.063 7.80616 135.993 7.55414 137.029 7.55414C137.863 7.55414 138.596 7.70077 139.228 7.99403C139.861 8.27813 140.365 8.61263 140.74 8.99754C141.116 9.38245 141.332 9.71695 141.387 10.001V0.254639H143.792V19.1701H141.428V16.9706C141.327 17.2822 141.075 17.6351 140.672 18.0291C140.278 18.4232 139.769 18.7669 139.146 19.0601C138.523 19.3534 137.817 19.5 137.029 19.5ZM137.579 17.5205C138.275 17.5205 138.912 17.3555 139.49 17.0256C140.067 16.6957 140.525 16.2329 140.864 15.6372C141.212 15.0323 141.387 14.3313 141.387 13.534C141.387 12.7366 141.212 12.0401 140.864 11.4445C140.525 10.8396 140.067 10.3722 139.49 10.0423C138.912 9.70321 138.275 9.53366 137.579 9.53366C136.937 9.53366 136.342 9.69862 135.792 10.0285C135.242 10.3585 134.797 10.8213 134.458 11.417C134.128 12.0127 133.963 12.7183 133.963 13.534C133.963 14.3496 134.128 15.0553 134.458 15.6509C134.797 16.2466 135.242 16.7094 135.792 17.0394C136.342 17.3601 136.937 17.5205 137.579 17.5205Z" fill="white"/><path d="M113.492 14.0151C113.501 14.6933 113.648 15.3119 113.932 15.8709C114.216 16.4299 114.638 16.8744 115.197 17.2043C115.765 17.5342 116.461 17.6992 117.286 17.6992C117.983 17.6992 118.574 17.5984 119.06 17.3968C119.554 17.186 119.958 16.9386 120.269 16.6545C120.581 16.3612 120.805 16.1 120.943 15.8709L122.111 17.3143C121.809 17.7542 121.438 18.1391 120.998 18.469C120.567 18.7989 120.04 19.051 119.417 19.2251C118.794 19.4084 118.033 19.5 117.135 19.5C115.925 19.5 114.876 19.2434 113.987 18.7302C113.107 18.2078 112.429 17.4884 111.952 16.572C111.476 15.6464 111.238 14.5879 111.238 13.3965C111.238 12.2967 111.462 11.307 111.911 10.4272C112.36 9.53824 113.011 8.83716 113.863 8.32395C114.725 7.81074 115.76 7.55413 116.97 7.55413C118.079 7.55413 119.041 7.78783 119.857 8.25522C120.682 8.71344 121.319 9.36412 121.768 10.2072C122.226 11.0504 122.455 12.0585 122.455 13.2315C122.455 13.3048 122.45 13.4377 122.441 13.6302C122.432 13.8135 122.423 13.9418 122.414 14.0151H113.492ZM120.173 12.2143C120.164 11.8385 120.054 11.4261 119.843 10.9771C119.641 10.528 119.312 10.1431 118.853 9.82234C118.395 9.50158 117.777 9.34121 116.998 9.34121C116.191 9.34121 115.54 9.497 115.045 9.80859C114.56 10.1202 114.202 10.5005 113.973 10.9496C113.744 11.3895 113.611 11.811 113.575 12.2143H120.173Z" fill="white"/><path d="M97.1991 7.88406H99.7697L103.454 16.9569L107.138 7.88406H109.695L104.87 19.1701H102.052L97.1991 7.88406Z" fill="white"/><path d="M92.223 19.1701V7.88406H94.6149V19.1701H92.223ZM93.4464 4.02123C93.0157 4.02123 92.6445 3.87002 92.3329 3.56759C92.0305 3.256 91.8793 2.88484 91.8793 2.45411C91.8793 2.02338 92.0305 1.65222 92.3329 1.34062C92.6445 1.02903 93.0157 0.873236 93.4464 0.873236C93.7305 0.873236 93.9917 0.946552 94.23 1.09318C94.4774 1.23982 94.6745 1.43227 94.8211 1.67055C94.9677 1.89966 95.041 2.16084 95.041 2.45411C95.041 2.88484 94.8853 3.256 94.5737 3.56759C94.2621 3.87002 93.8863 4.02123 93.4464 4.02123Z" fill="white"/><path d="M81.8427 7.88406H84.0559V3.25142H86.4341V7.88406H89.3347V9.93231H86.4341V15.5135C86.4341 16.1733 86.5487 16.659 86.7778 16.9706C87.016 17.2822 87.3322 17.438 87.7263 17.438C88.0745 17.438 88.3449 17.3739 88.5373 17.2456C88.7298 17.1173 88.8444 17.0302 88.881 16.9844L89.8295 18.744C89.7745 18.7898 89.6279 18.8768 89.3896 19.0051C89.1514 19.1334 88.8444 19.248 88.4686 19.3488C88.0929 19.4496 87.653 19.5 87.1489 19.5C86.2691 19.5 85.5314 19.2343 84.9357 18.7027C84.3492 18.162 84.0559 17.3097 84.0559 16.1458V9.93231H81.8427V7.88406Z" fill="white"/><path d="M77.2169 19.1701V16.9706C77.1436 17.1997 76.9283 17.5159 76.5708 17.9191C76.2226 18.3224 75.7415 18.689 75.1274 19.0189C74.5226 19.3396 73.8078 19.5 72.983 19.5C71.9382 19.5 70.9897 19.2526 70.1374 18.7577C69.2943 18.2628 68.6207 17.5709 68.1166 16.6819C67.6217 15.7838 67.3743 14.7345 67.3743 13.5339C67.3743 12.3334 67.6217 11.2887 68.1166 10.3997C68.6207 9.50158 69.2943 8.80508 70.1374 8.3102C70.9897 7.80616 71.9382 7.55413 72.983 7.55413C73.7986 7.55413 74.5043 7.70077 75.0999 7.99403C75.7048 8.28729 76.1859 8.62638 76.5434 9.01128C76.9099 9.39619 77.1253 9.72611 77.1894 10.001V7.88406H79.5539V19.1701H77.2169ZM69.7387 13.5339C69.7387 14.3496 69.9174 15.0553 70.2749 15.6509C70.6323 16.2466 71.0951 16.7094 71.6633 17.0394C72.2406 17.3601 72.8547 17.5205 73.5053 17.5205C74.2018 17.5205 74.825 17.3555 75.3749 17.0256C75.9248 16.6957 76.3601 16.2329 76.6808 15.6372C77.0016 15.0323 77.162 14.3313 77.162 13.5339C77.162 12.7366 77.0016 12.0401 76.6808 11.4445C76.3601 10.8396 75.9248 10.3722 75.3749 10.0423C74.825 9.7032 74.2018 9.53366 73.5053 9.53366C72.8547 9.53366 72.2406 9.69862 71.6633 10.0285C71.0951 10.3585 70.6323 10.8213 70.2749 11.417C69.9174 12.0126 69.7387 12.7183 69.7387 13.5339Z" fill="white"/><path d="M60.3837 7.55413C61.126 7.55413 61.8454 7.70993 62.5419 8.02152C63.2476 8.33311 63.8249 8.828 64.274 9.50617C64.7322 10.1752 64.9613 11.0504 64.9613 12.1318V19.1701H62.5419V12.5992C62.5419 11.4811 62.2807 10.6701 61.7583 10.166C61.236 9.6528 60.5624 9.39619 59.7376 9.39619C59.1969 9.39619 58.6745 9.55199 58.1705 9.86358C57.6756 10.166 57.2678 10.5876 56.947 11.1283C56.6262 11.6598 56.4659 12.2647 56.4659 12.9428V19.1701H54.0739V7.88406H56.4659V9.89107C56.5483 9.57948 56.7729 9.2404 57.1395 8.87382C57.506 8.50724 57.9734 8.19565 58.5416 7.93904C59.1098 7.68244 59.7238 7.55413 60.3837 7.55413Z" fill="white"/><path d="M46.7577 19.1701H44.3795V7.88406H46.7577V9.83609H46.6889C46.7348 9.59781 46.9043 9.29997 47.1976 8.94255C47.4908 8.58514 47.8941 8.26438 48.4073 7.98028C48.9205 7.69618 49.5345 7.55413 50.2493 7.55413C50.7717 7.55413 51.2299 7.62745 51.624 7.77408C52.0273 7.91155 52.3114 8.04902 52.4763 8.18648L51.5003 10.166C51.372 10.0377 51.1475 9.9094 50.8267 9.7811C50.506 9.64363 50.1073 9.5749 49.6307 9.5749C49.0259 9.5749 48.5081 9.76277 48.0774 10.1385C47.6466 10.5143 47.3167 10.9679 47.0876 11.4994C46.8677 12.0218 46.7577 12.5075 46.7577 12.9566V19.1701Z" fill="white"/><path d="M32.7481 14.0151C32.7572 14.6933 32.9039 15.3119 33.188 15.8709C33.4721 16.4299 33.8936 16.8744 34.4527 17.2043C35.0209 17.5342 35.7174 17.6992 36.5422 17.6992C37.2387 17.6992 37.8298 17.5984 38.3155 17.3968C38.8104 17.186 39.2136 16.9386 39.5252 16.6545C39.8368 16.3612 40.0613 16.1 40.1988 15.8709L41.3673 17.3143C41.0648 17.7542 40.6937 18.1391 40.2538 18.469C39.823 18.7989 39.2961 19.051 38.6729 19.2251C38.0497 19.4084 37.2891 19.5 36.391 19.5C35.1812 19.5 34.1319 19.2434 33.243 18.7302C32.3632 18.2078 31.685 17.4884 31.2084 16.572C30.7319 15.6464 30.4936 14.5879 30.4936 13.3965C30.4936 12.2967 30.7181 11.307 31.1672 10.4272C31.6163 9.53824 32.2669 8.83716 33.1192 8.32395C33.9807 7.81074 35.0163 7.55413 36.226 7.55413C37.3349 7.55413 38.2972 7.78783 39.1128 8.25522C39.9376 8.71344 40.5745 9.36412 41.0236 10.2072C41.4818 11.0504 41.7109 12.0585 41.7109 13.2315C41.7109 13.3048 41.7063 13.4377 41.6972 13.6302C41.688 13.8135 41.6788 13.9418 41.6697 14.0151H32.7481ZM39.429 12.2143C39.4198 11.8385 39.3098 11.4261 39.0991 10.9771C38.8974 10.528 38.5675 10.1431 38.1093 9.82234C37.6511 9.50158 37.0325 9.34121 36.2535 9.34121C35.447 9.34121 34.7963 9.497 34.3015 9.80859C33.8157 10.1202 33.4583 10.5005 33.2292 10.9496C33.0001 11.3895 32.8672 11.811 32.8306 12.2143H39.429Z" fill="white"/><path d="M21.1306 7.88406H23.3438V3.25142H25.722V7.88406H28.6226V9.93231H25.722V15.5135C25.722 16.1733 25.8366 16.659 26.0657 16.9706C26.304 17.2822 26.6201 17.438 27.0142 17.438C27.3624 17.438 27.6328 17.3739 27.8253 17.2456C28.0177 17.1173 28.1323 17.0302 28.1689 16.9844L29.1174 18.744C29.0625 18.7898 28.9158 18.8768 28.6775 19.0051C28.4393 19.1334 28.1323 19.248 27.7565 19.3488C27.3808 19.4496 26.9409 19.5 26.4368 19.5C25.557 19.5 24.8193 19.2343 24.2236 18.7027C23.6371 18.162 23.3438 17.3097 23.3438 16.1458V9.93231H21.1306V7.88406Z" fill="white"/><path d="M18.5924 19.1701H16.1867V0.254639H18.5924V19.1701Z" fill="white"/><path d="M10.5162 19.1701V16.9706C10.4429 17.1997 10.2275 17.5159 9.87013 17.9191C9.52188 18.3224 9.04074 18.689 8.42672 19.0189C7.82187 19.3396 7.10704 19.5 6.28224 19.5C5.23749 19.5 4.28897 19.2526 3.43667 18.7577C2.59354 18.2628 1.91995 17.5709 1.41591 16.6819C0.921025 15.7838 0.673584 14.7345 0.673584 13.5339C0.673584 12.3334 0.921025 11.2887 1.41591 10.3997C1.91995 9.50158 2.59354 8.80508 3.43667 8.3102C4.28897 7.80616 5.23749 7.55413 6.28224 7.55413C7.09788 7.55413 7.80354 7.70077 8.39923 7.99403C9.00409 8.28729 9.48522 8.62638 9.84264 9.01128C10.2092 9.39619 10.4246 9.72611 10.4887 10.001V7.88406H12.8532V19.1701H10.5162ZM3.03802 13.5339C3.03802 14.3496 3.21672 15.0553 3.57414 15.6509C3.93155 16.2466 4.39436 16.7094 4.96256 17.0394C5.53992 17.3601 6.15394 17.5205 6.80461 17.5205C7.50111 17.5205 8.1243 17.3555 8.67416 17.0256C9.22403 16.6957 9.65935 16.2329 9.9801 15.6372C10.3009 15.0323 10.4612 14.3313 10.4612 13.5339C10.4612 12.7366 10.3009 12.0401 9.9801 11.4445C9.65935 10.8396 9.22403 10.3722 8.67416 10.0423C8.1243 9.7032 7.50111 9.53366 6.80461 9.53366C6.15394 9.53366 5.53992 9.69862 4.96256 10.0285C4.39436 10.3585 3.93155 10.8213 3.57414 11.417C3.21672 12.0126 3.03802 12.7183 3.03802 13.5339Z" fill="white"/></svg>