<svg width="75" height="75" viewBox="0 0 75 75" fill="none" xmlns="http://www.w3.org/2000/svg"><path d="M9 68.1738H66" stroke="#01E4DB" stroke-width="3" stroke-linecap="round" stroke-linejoin="round"/><path d="M63.5 30.6738H56.5V67.6738H63.5V30.6738Z" fill="#01E4DB" stroke="#01E4DB" stroke-width="3" stroke-linejoin="round"/><path d="M33.5 40.6738H26.5V67.6738H33.5V40.6738Z" fill="#01E4DB" stroke="#01E4DB" stroke-width="3" stroke-linejoin="round"/><path d="M48.5 45.6738H41.5V67.6738H48.5V45.6738Z" fill="#01E4DB" stroke="#01E4DB" stroke-width="3" stroke-linejoin="round"/><path d="M18.5 52.6738H11.5V67.6738H18.5V52.6738Z" fill="#01E4DB" stroke="#01E4DB" stroke-width="3" stroke-linejoin="round"/><path d="M64.5424 13.1738C64.5424 15.6591 62.5277 17.6738 60.0425 17.6738C57.5572 17.6738 55.5425 15.6591 55.5425 13.1738C55.5425 10.6885 57.5572 8.67383 60.0424 8.67383C62.5277 8.67383 64.5424 10.6886 64.5424 13.1738ZM49.4989 28.1738C49.4989 30.6591 47.4842 32.6738 44.9989 32.6738C42.5136 32.6738 40.4989 30.6591 40.4989 28.1738C40.4989 25.6885 42.5136 23.6738 44.9989 23.6738C47.4842 23.6738 49.4989 25.6886 49.4989 28.1738ZM34.4992 23.1738C34.4992 25.6591 32.4845 27.6738 29.9992 27.6738C27.5139 27.6738 25.4992 25.6591 25.4992 23.1738C25.4992 20.6885 27.5139 18.6738 29.9992 18.6738C32.4845 18.6738 34.4992 20.6886 34.4992 23.1738ZM19.5 35.1738C19.5 37.6591 17.4853 39.6738 15 39.6738C12.5147 39.6738 10.5 37.6591 10.5 35.1738C10.5 32.6885 12.5147 30.6738 15 30.6738C17.4853 30.6738 19.5 32.6886 19.5 35.1738Z" stroke="#01E4DB" stroke-width="3"/><path d="M18.249 32.4922L26.0001 26.1739M34.7489 24.4921L41 26.6738M48.5 24.4921L57 16.1738" stroke="#01E4DB" stroke-width="3"/></svg>