<svg width="75" height="76" viewBox="0 0 75 76" fill="none" xmlns="http://www.w3.org/2000/svg"><path d="M35.3399 20.1934C30.511 20.1934 26.5932 24.136 26.5932 28.9955C26.5932 33.855 30.511 37.7976 35.3399 37.7976C40.1689 37.7976 44.0867 33.855 44.0867 28.9955C44.0867 24.136 40.1689 20.1934 35.3399 20.1934ZM35.3399 35.2193C31.9251 35.2193 29.1553 32.432 29.1553 28.9955C29.1553 25.559 31.9251 22.7716 35.3399 22.7716C38.7548 22.7716 41.5246 25.559 41.5246 28.9955C41.5246 32.432 38.7548 35.2193 35.3399 35.2193Z" fill="#01E4DB"/><path d="M63.9708 43.244C63.9708 43.244 59.1711 27.6019 57.655 22.3646C56.4705 18.2717 54.3458 14.5821 51.4302 11.6517C47.0387 7.23233 40.9706 4.5 34.2685 4.5C27.5663 4.5 21.4983 7.23233 17.1067 11.6517C12.7151 16.0711 10 22.1776 10 28.9222C10 34.8526 12.0992 40.288 15.5906 44.5203C19.082 48.749 21.0828 54.0156 21.0828 59.5133V68.4144C21.0828 69.0159 21.5675 69.5 22.1616 69.5H46.379C46.9731 69.5 47.4578 69.0159 47.4578 68.4144V58.5707H57.4509C58.0522 58.5707 58.5406 58.0793 58.5406 57.4741V44.535H62.9759C63.6465 44.535 64.1348 43.8968 63.9708 43.244ZM47.21 29.0212C47.21 29.212 47.2063 29.399 47.1954 29.5934C47.1371 30.8 47.6837 31.9553 48.6459 32.6778L49.5315 33.3343C49.8267 33.5543 49.9105 33.9651 49.7283 34.2842L46.9585 39.107C46.8346 39.3271 46.5868 39.4664 46.3353 39.4664C46.2332 39.4664 46.1421 39.4481 46.0474 39.4077L45.0379 38.9676C44.5787 38.7696 44.0903 38.6706 43.6019 38.6706C42.9204 38.6706 42.2426 38.8649 41.6522 39.2464C41.3387 39.4481 41.0071 39.6425 40.6754 39.8148C39.6076 40.3686 38.8824 41.4212 38.7439 42.6242L38.62 43.7281C38.5799 44.0912 38.2701 44.3736 37.9056 44.3736H32.3734C32.0053 44.3736 31.6991 44.0949 31.659 43.7281L31.5351 42.6242C31.3966 41.4212 30.6714 40.3686 29.6036 39.8148C29.2719 39.6425 28.9476 39.4518 28.6341 39.2464C28.0401 38.8649 27.3622 38.6706 26.6807 38.6706C26.1923 38.6706 25.704 38.7696 25.2484 38.9676L24.2389 39.4077C24.1442 39.4481 24.0494 39.4664 23.951 39.4664C23.6959 39.4664 23.4517 39.3271 23.3242 39.107L22.7738 38.1498L20.5544 34.2842C20.3721 33.9688 20.456 33.558 20.7512 33.3416L21.6368 32.6815C22.1324 32.3074 22.5224 31.8159 22.7738 31.2584C23.0071 30.745 23.1201 30.1765 23.0909 29.597C23.0836 29.4027 23.0763 29.2156 23.0763 29.0249C23.0763 28.8342 23.08 28.6435 23.0909 28.4528C23.1164 27.8733 23.0071 27.3048 22.7738 26.7914C22.5224 26.2339 22.1324 25.7425 21.6368 25.3684L20.7512 24.7082C20.456 24.4882 20.3758 24.0811 20.558 23.762L23.3242 18.9391C23.4481 18.7191 23.6959 18.5761 23.9474 18.5761C24.0494 18.5761 24.1405 18.5981 24.2353 18.6384L25.2521 19.0785C25.7076 19.2766 26.196 19.3756 26.6843 19.3756C27.3695 19.3756 28.0437 19.1812 28.6341 18.7998C28.9512 18.5944 29.2792 18.4037 29.6145 18.2313C30.6787 17.6738 31.4039 16.6213 31.5424 15.4183L31.6663 14.3217C31.7064 13.9586 32.0162 13.6762 32.3806 13.6762H37.9129C38.281 13.6762 38.5872 13.9513 38.6273 14.3217L38.7585 15.4183C38.8933 16.6213 39.6185 17.6738 40.6864 18.2313C41.018 18.4037 41.3424 18.5907 41.6631 18.7998C42.2535 19.1812 42.935 19.3756 43.6129 19.3756C44.1012 19.3756 44.5896 19.2766 45.0488 19.0785L46.0583 18.6384C46.1531 18.5981 46.2405 18.5761 46.3462 18.5761C46.5977 18.5761 46.8419 18.7191 46.9694 18.9391L49.7392 23.762C49.9214 24.0811 49.8376 24.4882 49.5424 24.7082L48.6605 25.3684C48.2085 25.7058 47.8477 26.1349 47.5999 26.6227C47.312 27.1765 47.1735 27.8073 47.2063 28.4491C47.2136 28.6398 47.2209 28.8305 47.2209 29.0212H47.21Z" fill="#01E4DB"/><path d="M35.34 31.5701C36.7529 31.5701 37.8984 30.4174 37.8984 28.9955C37.8984 27.5736 36.7529 26.4209 35.34 26.4209C33.927 26.4209 32.7816 27.5736 32.7816 28.9955C32.7816 30.4174 33.927 31.5701 35.34 31.5701Z" fill="#01E4DB"/></svg>