<svg width="75" height="76" viewBox="0 0 75 76" fill="none" xmlns="http://www.w3.org/2000/svg"><path d="M48.9931 23.2289C48.2278 24.0835 47.2037 24.685 46.0121 24.7693C47.4734 25.4808 50.0389 31.0628 46.8648 30.432C46.6097 30.2596 46.4385 29.8305 46.4385 29.4894C46.4166 24.861 40.1959 24.894 37.9183 21.7729C36.6392 22.0076 35.3673 21.9673 34.0846 21.7729C34.5948 22.9502 34.8207 24.4869 34.4271 25.7999C35.7135 27.1495 38.0385 25.6605 38.3847 27.0175C38.7856 28.5909 35.2033 28.3085 33.6618 27.7694C33.1699 28.6166 32.0329 30.498 30.9323 29.4894C30.5898 29.0603 30.6772 28.4589 31.0161 28.1141C33.1225 26.3977 33.2683 23.2069 31.5263 21.1714C30.8157 21.0724 30.2253 20.8964 29.4819 20.7423C29.4236 20.7203 29.2013 20.812 29.143 20.8267C25.8887 21.3842 23.3378 23.5077 23.8953 26.9882C25.2473 26.6948 28.3996 26.1483 28.5235 27.4833C28.5672 27.9931 28.1044 28.2865 27.5942 28.2865C26.5738 28.1985 25.3384 28.1545 24.3181 28.5836C25.4842 31.8293 30.393 33.124 30.5497 36.6192C30.5825 37.4187 29.2086 38.0972 28.9572 36.6192C28.5927 34.4736 25.9689 33.2377 24.3982 31.866C23.673 33.3734 20.6265 33.4064 20.5937 32.4638C20.5499 31.2389 22.8349 32.3648 23.6038 30.6887C23.0061 29.5738 22.4923 28.0298 22.4049 26.8268C17.7694 25.5945 17.5471 21.5895 18.6841 21.3658C20.2657 21.0504 19.4421 24.1495 22.332 24.7766C22.5688 22.7558 24.1832 20.9294 26.0782 20.1445C25.8596 19.4844 25.2073 18.9526 24.544 18.7692C21.9675 17.3388 25.7758 15.043 27.8639 19.2826C29.9119 18.6445 31.9819 18.3401 31.7814 15.7691C31.7814 15.4244 31.8689 14.9953 32.2078 14.8266C34.8899 13.895 33.6983 18.6555 32.2953 19.455C37.153 20.658 40.2178 19.8841 41.6682 17.2252C41.9233 16.796 42.5209 16.6237 42.9473 16.8841C44.4305 18.5968 41.3001 20.4636 39.9627 21.1714C41.5953 22.8365 46.0923 23.493 47.5463 21.9416C48.3553 21.0687 49.7838 22.224 48.9931 23.2289Z" fill="#01E4DB"/><path d="M63.9671 44.244C63.9671 44.244 59.1677 28.6019 57.6517 23.3646C56.4673 19.2717 54.3428 15.5821 51.4274 12.6517C47.0361 8.23233 40.9685 5.5 34.2668 5.5C27.5651 5.5 21.4974 8.23233 17.1062 12.6517C12.7149 17.0711 9.99994 23.1776 9.99994 29.9222C9.99994 35.8526 12.099 41.288 15.5902 45.5203C19.0813 49.749 21.082 55.0156 21.082 60.5133V69.4144C21.082 70.0159 21.5667 70.5 22.1607 70.5H46.3765C46.9705 70.5 47.4552 70.0159 47.4552 69.4144V59.5707H57.4476C58.0489 59.5707 58.5373 59.0793 58.5373 58.4741V45.535H62.9723C63.6428 45.535 64.1311 44.8968 63.9671 44.244ZM47.969 32.4895H40.3891C37.153 32.4895 34.8171 35.0641 33.0751 37.8111C30.1014 42.2782 24.0083 41.1523 21.8145 37.8038C20.4953 37.5654 16.6105 35.0605 16.3664 31.4589C14.9123 29.4014 14.9998 26.5701 16.6215 24.6006C15.5975 21.3548 17.6564 17.7423 21.0492 17.1408C22.0441 14.2361 25.0615 12.615 27.9513 13.3669C29.9702 10.9206 34.0736 10.5759 36.3841 12.8534C39.4379 10.6969 44.1135 12.0943 45.2468 15.6811C48.6869 15.4941 51.544 18.2887 51.4675 21.7729C56.9447 24.6923 53.6431 32.8233 47.969 32.4895Z" fill="#01E4DB"/></svg>