<svg width="75" height="75" viewBox="0 0 75 75" fill="none" xmlns="http://www.w3.org/2000/svg"><path d="M19.4532 49.1406L17.2656 46.9531L23.9844 40.2344L17.2656 33.5156L19.4532 31.3281L28.3594 40.2344L19.4532 49.1406Z" fill="#01E4DB"/><path d="M9.25 13.2812C7.59314 13.2812 6.25 14.6244 6.25 16.2812V58.7188C6.25 60.3756 7.59315 61.7188 9.25 61.7188H65.75C67.4069 61.7188 68.75 60.3756 68.75 58.7188V16.2812C68.75 14.6244 67.4069 13.2812 65.75 13.2812H9.25ZM60.1562 17.9688C61.0156 17.9688 61.7188 18.6719 61.7188 19.5312C61.7188 20.3906 61.0156 21.0938 60.1562 21.0938C59.2969 21.0938 58.5938 20.3906 58.5938 19.5312C58.5938 18.6719 59.2969 17.9688 60.1562 17.9688ZM54.6875 17.9688C55.5469 17.9688 56.25 18.6719 56.25 19.5312C56.25 20.3906 55.5469 21.0938 54.6875 21.0938C53.8281 21.0938 53.125 20.3906 53.125 19.5312C53.125 18.6719 53.8281 17.9688 54.6875 17.9688ZM49.2188 17.9688C50.0781 17.9688 50.7812 18.6719 50.7812 19.5312C50.7812 20.3906 50.0781 21.0938 49.2188 21.0938C48.3594 21.0938 47.6562 20.3906 47.6562 19.5312C47.6562 18.6719 48.3594 17.9688 49.2188 17.9688ZM64.0625 54.0312C64.0625 55.6881 62.7194 57.0312 61.0625 57.0312H13.9375C12.2806 57.0312 10.9375 55.6881 10.9375 54.0312V25.7812H64.0625V54.0312Z" fill="#01E4DB"/><path d="M29.6875 46.0938H42.1875V49.2188H29.6875V46.0938Z" fill="#01E4DB"/></svg>