<svg xmlns="http://www.w3.org/2000/svg" xmlns:xlink="http://www.w3.org/1999/xlink"><defs><clipPath id="clip0_189_468"><rect width="20" height="29" fill="white"/></clipPath><clipPath id="clip0_3024_3206"><rect width="48" height="48" fill="white"/></clipPath></defs><symbol id="address" viewBox="0 0 20 29"><g fill="none"><g clip-path="url(#clip0_189_468)"><path d="M17.5137 15.5175L16.9574 15.1092L16.9419 15.1305L16.9279 15.153L17.5137 15.5175ZM10 27.619L9.41428 27.9835L10 28.9269L10.5857 27.9835L10 27.619ZM2.48635 15.5175L3.07206 15.153L3.05814 15.1305L3.04255 15.1092L2.48635 15.5175ZM18.0699 15.9257C19.2832 14.2686 20 12.2231 20 10.0119H18.6207C18.6207 11.9196 18.0033 13.681 16.9574 15.1092L18.0699 15.9257ZM10.5857 27.9835L18.0994 15.882L16.9279 15.153L9.41428 27.2545L10.5857 27.9835ZM1.90063 15.882L9.41428 27.9835L10.5857 27.2545L3.07206 15.153L1.90063 15.882ZM0 10.0119C0 12.2231 0.716752 14.2686 1.93015 15.9257L3.04255 15.1092C1.9967 13.681 1.37931 11.9196 1.37931 10.0119H0ZM10 0C4.47715 0 0 4.48248 0 10.0119H1.37931C1.37931 5.24516 5.23892 1.38095 10 1.38095V0ZM20 10.0119C20 4.48248 15.5228 0 10 0V1.38095C14.7611 1.38095 18.6207 5.24516 18.6207 10.0119H20ZM13.1034 10.0119C13.1034 11.7279 11.714 13.119 10 13.119V14.5C12.4757 14.5 14.4828 12.4906 14.4828 10.0119H13.1034ZM10 6.90476C11.714 6.90476 13.1034 8.29586 13.1034 10.0119H14.4828C14.4828 7.53316 12.4757 5.52381 10 5.52381V6.90476ZM6.89655 10.0119C6.89655 8.29586 8.286 6.90476 10 6.90476V5.52381C7.52421 5.52381 5.51724 7.53316 5.51724 10.0119H6.89655ZM10 13.119C8.286 13.119 6.89655 11.7279 6.89655 10.0119H5.51724C5.51724 12.4906 7.52421 14.5 10 14.5V13.119Z" fill="#01E4DB"/></g></g></symbol><symbol id="analytics" viewBox="0 0 75 75"><g fill="none"><path d="M15.5 35.5L30.5 23.5L45.5 28.5L60.5 13.5" stroke="#01E4DB" stroke-width="3"/><path d="M15.5 40C17.9853 40 20 37.9853 20 35.5C20 33.0147 17.9853 31 15.5 31C13.0147 31 11 33.0147 11 35.5C11 37.9853 13.0147 40 15.5 40Z" fill="black" stroke="#01E4DB" stroke-width="3"/><path d="M30.5 28C32.9853 28 35 25.9853 35 23.5C35 21.0147 32.9853 19 30.5 19C28.0147 19 26 21.0147 26 23.5C26 25.9853 28.0147 28 30.5 28Z" fill="black" stroke="#01E4DB" stroke-width="3"/><path d="M45.5 33C47.9853 33 50 30.9853 50 28.5C50 26.0147 47.9853 24 45.5 24C43.0147 24 41 26.0147 41 28.5C41 30.9853 43.0147 33 45.5 33Z" fill="black" stroke="#01E4DB" stroke-width="3"/><path d="M60.5 18C62.9853 18 65 15.9853 65 13.5C65 11.0147 62.9853 9 60.5 9C58.0147 9 56 11.0147 56 13.5C56 15.9853 58.0147 18 60.5 18Z" fill="black" stroke="#01E4DB" stroke-width="3"/><path d="M19 53H12V68H19V53Z" fill="#01E4DB" stroke="#01E4DB" stroke-width="3" stroke-linejoin="round"/><path d="M49 46H42V68H49V46Z" fill="#01E4DB" stroke="#01E4DB" stroke-width="3" stroke-linejoin="round"/><path d="M34 41H27V68H34V41Z" fill="#01E4DB" stroke="#01E4DB" stroke-width="3" stroke-linejoin="round"/><path d="M64 31H57V68H64V31Z" fill="#01E4DB" stroke="#01E4DB" stroke-width="3" stroke-linejoin="round"/><path d="M9.5 68.5H66.5" stroke="#01E4DB" stroke-width="3" stroke-linecap="round" stroke-linejoin="round"/></g></symbol><symbol id="app" viewBox="0 0 75 75"><g fill="none"><path d="M19.4532 49.1406L17.2656 46.9531L23.9844 40.2344L17.2656 33.5156L19.4532 31.3281L28.3594 40.2344L19.4532 49.1406Z" fill="#01E4DB"/><path d="M9.25 13.2812C7.59314 13.2812 6.25 14.6244 6.25 16.2812V58.7188C6.25 60.3756 7.59315 61.7188 9.25 61.7188H65.75C67.4069 61.7188 68.75 60.3756 68.75 58.7188V16.2812C68.75 14.6244 67.4069 13.2812 65.75 13.2812H9.25ZM60.1562 17.9688C61.0156 17.9688 61.7188 18.6719 61.7188 19.5312C61.7188 20.3906 61.0156 21.0938 60.1562 21.0938C59.2969 21.0938 58.5938 20.3906 58.5938 19.5312C58.5938 18.6719 59.2969 17.9688 60.1562 17.9688ZM54.6875 17.9688C55.5469 17.9688 56.25 18.6719 56.25 19.5312C56.25 20.3906 55.5469 21.0938 54.6875 21.0938C53.8281 21.0938 53.125 20.3906 53.125 19.5312C53.125 18.6719 53.8281 17.9688 54.6875 17.9688ZM49.2188 17.9688C50.0781 17.9688 50.7812 18.6719 50.7812 19.5312C50.7812 20.3906 50.0781 21.0938 49.2188 21.0938C48.3594 21.0938 47.6562 20.3906 47.6562 19.5312C47.6562 18.6719 48.3594 17.9688 49.2188 17.9688ZM64.0625 54.0312C64.0625 55.6881 62.7194 57.0312 61.0625 57.0312H13.9375C12.2806 57.0312 10.9375 55.6881 10.9375 54.0312V25.7812H64.0625V54.0312Z" fill="#01E4DB"/><path d="M29.6875 46.0938H42.1875V49.2188H29.6875V46.0938Z" fill="#01E4DB"/></g></symbol><symbol id="email" viewBox="0 0 36 36"><g fill="none"><path d="M30 9H6C4.89543 9 4 9.89543 4 11V25C4 26.1046 4.89543 27 6 27H30C31.1046 27 32 26.1046 32 25V11C32 9.89543 31.1046 9 30 9Z" stroke="#01E4DB" stroke-width="1.5"/><path d="M4 27L17.8495 15.75L32 27" stroke="#01E4DB" stroke-width="1.5" stroke-linejoin="round"/><path d="M17.2257 19.7433L6.18661 10.7762C5.45579 10.1825 5.87556 9 6.81711 9H29.1353C30.0821 9 30.4987 10.1936 29.7576 10.7828L18.4785 19.7499C18.1111 20.042 17.59 20.0392 17.2257 19.7433Z" fill="black" stroke="#01E4DB" stroke-width="1.5" stroke-linejoin="round"/></g></symbol><symbol id="facebook" viewBox="0 0 8 17"><g fill="none"><path d="M8 5.5047H5.2755V3.7403C5.2755 3.0777 5.7202 2.9232 6.0335 2.9232C6.346 2.9232 7.9562 2.9232 7.9562 2.9232V0.0101995L5.3083 0C2.3689 0 1.6999 2.1726 1.6999 3.5629V5.5047H0V8.5063H1.6999C1.6999 12.3585 1.6999 17 1.6999 17H5.2755C5.2755 17 5.2755 12.3128 5.2755 8.5063H7.6882L8 5.5047Z" fill="black"/></g></symbol><symbol id="icon-close" viewBox="0 0 48 48"><g fill="none"><g clip-path="url(#clip0_3024_3206)"><path d="M10.9098 10.4236L38.0627 37.5765" stroke="#01E4DB" stroke-width="6" stroke-linecap="round"/><path d="M10.9098 37.5764L38.0627 10.4235" stroke="#01E4DB" stroke-width="6" stroke-linecap="round"/></g></g></symbol><symbol id="linkedin" viewBox="0 0 16 16"><g fill="none"><path fill-rule="evenodd" clip-rule="evenodd" d="M3.3563 16V5.4186H0.1004V16H3.3563ZM3.3563 1.6679C3.3369 0.721 2.7086 0 1.688 0C0.6671 0 0 0.721 0 1.6679C0 2.5943 0.6477 3.3361 1.6489 3.3361H1.6683C2.7086 3.3361 3.3563 2.5943 3.3563 1.6679ZM8.6681 16V9.9712C8.6681 9.6486 8.6913 9.3259 8.7858 9.0959C9.044 8.4509 9.6317 7.7832 10.6186 7.7832C11.9114 7.7832 12.7222 8.5202 12.7222 9.9712V16H16V9.8099C16 6.4939 14.2378 4.9509 11.8872 4.9509C9.9599 4.9509 9.114 6.0333 8.6442 6.7699L8.6678 5.3547H5.3956C5.4427 6.3677 5.3956 16 5.3956 16H8.6681Z" fill="black"/></g></symbol><symbol id="phone" viewBox="0 0 34 34"><g fill="none"><path d="M8.56708 17.5254C4.8788 13.8371 4.8788 7.8572 8.56708 4.16892L8.75789 3.97811C9.39017 3.34584 10.4152 3.34584 11.0476 3.97811L15.2453 8.17586C15.9829 8.91352 15.9829 10.1095 15.2453 10.8471L13.9082 12.1843C13.172 12.9221 13.1725 14.1169 13.9097 14.854L19.2522 20.1967C19.9899 20.9343 21.1859 20.9343 21.9236 20.1967L23.2592 18.861C23.9968 18.1233 25.1928 18.1233 25.9305 18.861L30.1283 23.0588C30.7605 23.691 30.7605 24.7162 30.1283 25.3484L29.9374 25.5393C26.2491 29.2275 20.2692 29.2275 16.581 25.5393L8.56708 17.5254Z" stroke="#01E4DB" stroke-width="1.5"/></g></symbol><symbol id="send" viewBox="0 0 18 18"><g fill="none"><path d="M0.340019 9.59003L16.71 0.0900264C17.19 -0.189974 17.78 0.200026 17.72 0.750026L15.92 17.16C15.87 17.61 15.41 17.88 14.99 17.71L9.44002 15.42L7.96002 17.32C7.56002 17.83 6.74002 17.54 6.75002 16.89L6.80002 14.12C6.80002 13.97 6.85002 13.83 6.95002 13.71L15.4 3.08003L5.10002 12.56C4.90002 12.75 4.60002 12.79 4.35002 12.67L0.390019 10.78C-0.0999809 10.55 -0.129981 9.86003 0.340019 9.59003Z" fill="black"/></g></symbol><symbol id="to-top" viewBox="0 0 53 29"><g fill="none"><path d="M3 26L26.5 3L50 26" stroke="black" stroke-width="6" stroke-linecap="round" stroke-linejoin="round"/></g></symbol><symbol id="twitter" viewBox="0 0 26 26"><g fill="none"><path d="M15.3023 11.1469L24.3113 0.899902H22.1765L14.354 9.79733L8.10618 0.899902H0.900024L10.3479 14.3543L0.900024 25.0999H3.03507L11.2959 15.704L17.8941 25.0999H25.1002L15.3021 11.1469H15.3027H15.3023ZM12.3781 14.4729L11.4208 13.1332L3.80423 2.47243H7.08333L13.2301 11.0758L14.1874 12.4155L22.1775 23.5986H18.8984L12.3783 14.4731V14.4725L12.3781 14.4729Z" fill="black"/></g></symbol></svg>