<svg width="20" height="29" viewBox="0 0 20 29" fill="none" xmlns="http://www.w3.org/2000/svg"><g clip-path="url(#clip0_189_468)"><path d="M17.5137 15.5175L16.9574 15.1092L16.9419 15.1305L16.9279 15.153L17.5137 15.5175ZM10 27.619L9.41428 27.9835L10 28.9269L10.5857 27.9835L10 27.619ZM2.48635 15.5175L3.07206 15.153L3.05814 15.1305L3.04255 15.1092L2.48635 15.5175ZM18.0699 15.9257C19.2832 14.2686 20 12.2231 20 10.0119H18.6207C18.6207 11.9196 18.0033 13.681 16.9574 15.1092L18.0699 15.9257ZM10.5857 27.9835L18.0994 15.882L16.9279 15.153L9.41428 27.2545L10.5857 27.9835ZM1.90063 15.882L9.41428 27.9835L10.5857 27.2545L3.07206 15.153L1.90063 15.882ZM0 10.0119C0 12.2231 0.716752 14.2686 1.93015 15.9257L3.04255 15.1092C1.9967 13.681 1.37931 11.9196 1.37931 10.0119H0ZM10 0C4.47715 0 0 4.48248 0 10.0119H1.37931C1.37931 5.24516 5.23892 1.38095 10 1.38095V0ZM20 10.0119C20 4.48248 15.5228 0 10 0V1.38095C14.7611 1.38095 18.6207 5.24516 18.6207 10.0119H20ZM13.1034 10.0119C13.1034 11.7279 11.714 13.119 10 13.119V14.5C12.4757 14.5 14.4828 12.4906 14.4828 10.0119H13.1034ZM10 6.90476C11.714 6.90476 13.1034 8.29586 13.1034 10.0119H14.4828C14.4828 7.53316 12.4757 5.52381 10 5.52381V6.90476ZM6.89655 10.0119C6.89655 8.29586 8.286 6.90476 10 6.90476V5.52381C7.52421 5.52381 5.51724 7.53316 5.51724 10.0119H6.89655ZM10 13.119C8.286 13.119 6.89655 11.7279 6.89655 10.0119H5.51724C5.51724 12.4906 7.52421 14.5 10 14.5V13.119Z" fill="#01E4DB"/></g><defs><clipPath id="clip0_189_468"><rect width="20" height="29" fill="white"/></clipPath></defs></svg>