<svg width="34" height="34" viewBox="0 0 34 34" fill="none" xmlns="http://www.w3.org/2000/svg"><path d="M8.56708 17.5254C4.8788 13.8371 4.8788 7.8572 8.56708 4.16892L8.75789 3.97811C9.39017 3.34584 10.4152 3.34584 11.0476 3.97811L15.2453 8.17586C15.9829 8.91352 15.9829 10.1095 15.2453 10.8471L13.9082 12.1843C13.172 12.9221 13.1725 14.1169 13.9097 14.854L19.2522 20.1967C19.9899 20.9343 21.1859 20.9343 21.9236 20.1967L23.2592 18.861C23.9968 18.1233 25.1928 18.1233 25.9305 18.861L30.1283 23.0588C30.7605 23.691 30.7605 24.7162 30.1283 25.3484L29.9374 25.5393C26.2491 29.2275 20.2692 29.2275 16.581 25.5393L8.56708 17.5254Z" stroke="#01E4DB" stroke-width="1.5"/></svg>